<svg width="0" height="0" class="hidden">
  <!-- Bandcamp Icon -->
  <symbol id="BandcampIcon" xmlns="http://www.w3.org/2000/svg" viewBox="0 0 512 512">
    <path d="M256,8C119,8,8,119,8,256S119,504,256,504,504,393,504,256,393,8,256,8Zm48.2,326.1h-181L207.9,178h181Z" />
  </symbol>

  <!-- Bluesky Icon -->
  <symbol id="BlueskyIcon" xmlns="http://www.w3.org/2000/svg" viewBox="0 0 512 512">
    <path
      d="M111.8 62.2C170.2 105.9 233 194.7 256 242.4c23-47.6 85.8-136.4 144.2-180.2c42.1-31.6 110.3-56 110.3 21.8c0 15.5-8.9 130.5-14.1 149.2C478.2 298 412 314.6 353.1 304.5c102.9 17.5 129.1 75.5 72.5 133.5c-107.4 110.2-154.3-27.6-166.3-62.9l0 0c-1.7-4.9-2.6-7.8-3.3-7.8s-1.6 3-3.3 7.8l0 0c-12 35.3-59 173.1-166.3 62.9c-56.5-58-30.4-116 72.5-133.5C100 314.6 33.8 298 15.7 233.1C10.4 214.4 1.5 99.4 1.5 83.9c0-77.8 68.2-53.4 110.3-21.8z"
    />
  </symbol>

  <!-- External Link Icon -->
  <symbol id="ExternalLinkIcon" xmlns="http://www.w3.org/2000/svg" x="0px" y="0px" viewBox="0 0 100 100" stroke-width="5">
    <path
      d="M28.8,83.1h36l0,0c6.6,0,12-5.4,12-12v-22c0-1.1-0.9-2-2-2l0,0c-1.1,0-2,0.9-2,2v22c0,4.4-3.6,8-8,8l0,0h-36  c-4.4,0-8-3.6-8-8v-36c0-4.4,3.6-8,8-8l0,0h22l0,0c1.1,0,2-0.9,2-2s-0.9-2-2-2h-22l0,0c-6.6,0-12,5.4-12,12v36  C16.8,77.7,22.2,83.1,28.8,83.1z"
    />
    <path
      d="M83.2,37.2V18.9c0-0.1,0-0.3,0-0.4c0,0,0-0.1,0-0.1c0-0.1,0-0.2-0.1-0.3L83,18c0-0.1-0.1-0.2-0.1-0.2  c-0.1-0.2-0.3-0.4-0.6-0.6c-0.1-0.1-0.2-0.1-0.3-0.1H82L81.7,17h-0.1c-0.1,0-0.3,0-0.4,0l0,0H62.9l0,0c-1.1,0-2,0.9-2,2s0.9,2,2,2  h13.5L47.1,50.1c-0.8,0.8-0.8,2,0,2.8c0.8,0.8,2,0.8,2.8,0l29.3-29.2v13.5c0,1.1,0.9,2,2,2l0,0C82.3,39.2,83.2,38.3,83.2,37.2z"
    />
  </symbol>

  <!-- Github Icon -->
  <symbol id="GithubIcon" xmlns="http://www.w3.org/2000/svg" viewBox="0 0 496 512">
    <path
      d="M165.9 397.4c0 2-2.3 3.6-5.2 3.6-3.3.3-5.6-1.3-5.6-3.6 0-2 2.3-3.6 5.2-3.6 3-.3 5.6 1.3 5.6 3.6zm-31.1-4.5c-.7 2 1.3 4.3 4.3 4.9 2.6 1 5.6 0 6.2-2s-1.3-4.3-4.3-5.2c-2.6-.7-5.5.3-6.2 2.3zm44.2-1.7c-2.9.7-4.9 2.6-4.6 4.9.3 2 2.9 3.3 5.9 2.6 2.9-.7 4.9-2.6 4.6-4.6-.3-1.9-3-3.2-5.9-2.9zM244.8 8C106.1 8 0 113.3 0 252c0 110.9 69.8 205.8 169.5 239.2 12.8 2.3 17.3-5.6 17.3-12.1 0-6.2-.3-40.4-.3-61.4 0 0-70 15-84.7-29.8 0 0-11.4-29.1-27.8-36.6 0 0-22.9-15.7 1.6-15.4 0 0 24.9 2 38.6 25.8 21.9 38.6 58.6 27.5 72.9 20.9 2.3-16 8.8-27.1 16-33.7-55.9-6.2-112.3-14.3-112.3-110.5 0-27.5 7.6-41.3 23.6-58.9-2.6-6.5-11.1-33.3 2.6-67.9 20.9-6.5 69 27 69 27 20-5.6 41.5-8.5 62.8-8.5s42.8 2.9 62.8 8.5c0 0 48.1-33.6 69-27 13.7 34.7 5.2 61.4 2.6 67.9 16 17.7 25.8 31.5 25.8 58.9 0 96.5-58.9 104.2-114.8 110.5 9.2 7.9 17 22.9 17 46.4 0 33.7-.3 75.4-.3 83.6 0 6.5 4.6 14.4 17.3 12.1C428.2 457.8 496 362.9 496 252 496 113.3 383.5 8 244.8 8zM97.2 352.9c-1.3 1-1 3.3.7 5.2 1.6 1.6 3.9 2.3 5.2 1 1.3-1 1-3.3-.7-5.2-1.6-1.6-3.9-2.3-5.2-1zm-10.8-8.1c-.7 1.3.3 2.9 2.3 3.9 1.6 1 3.6.7 4.3-.7.7-1.3-.3-2.9-2.3-3.9-2-.6-3.6-.3-4.3.7zm32.4 35.6c-1.6 1.3-1 4.3 1.3 6.2 2.3 2.3 5.2 2.6 6.5 1 1.3-1.3.7-4.3-1.3-6.2-2.2-2.3-5.2-2.6-6.5-1zm-11.4-14.7c-1.6 1-1.6 3.6 0 5.9 1.6 2.3 4.3 3.3 5.6 2.3 1.6-1.3 1.6-3.9 0-6.2-1.4-2.3-4-3.3-5.6-2z"
    />
  </symbol>

  <!-- Instagram Icon -->
  <symbol id="InstagramIcon" xmlns="http://www.w3.org/2000/svg" viewBox="0 0 448 512">
    <path
      d="M224.1 141c-63.6 0-114.9 51.3-114.9 114.9s51.3 114.9 114.9 114.9S339 319.5 339 255.9 287.7 141 224.1 141zm0 189.6c-41.1 0-74.7-33.5-74.7-74.7s33.5-74.7 74.7-74.7 74.7 33.5 74.7 74.7-33.6 74.7-74.7 74.7zm146.4-194.3c0 14.9-12 26.8-26.8 26.8-14.9 0-26.8-12-26.8-26.8s12-26.8 26.8-26.8 26.8 12 26.8 26.8zm76.1 27.2c-1.7-35.9-9.9-67.7-36.2-93.9-26.2-26.2-58-34.4-93.9-36.2-37-2.1-147.9-2.1-184.9 0-35.8 1.7-67.6 9.9-93.9 36.1s-34.4 58-36.2 93.9c-2.1 37-2.1 147.9 0 184.9 1.7 35.9 9.9 67.7 36.2 93.9s58 34.4 93.9 36.2c37 2.1 147.9 2.1 184.9 0 35.9-1.7 67.7-9.9 93.9-36.2 26.2-26.2 34.4-58 36.2-93.9 2.1-37 2.1-147.8 0-184.8zM398.8 388c-7.8 19.6-22.9 34.7-42.6 42.6-29.5 11.7-99.5 9-132.1 9s-102.7 2.6-132.1-9c-19.6-7.8-34.7-22.9-42.6-42.6-11.7-29.5-9-99.5-9-132.1s-2.6-102.7 9-132.1c7.8-19.6 22.9-34.7 42.6-42.6 29.5-11.7 99.5-9 132.1-9s102.7-2.6 132.1 9c19.6 7.8 34.7 22.9 42.6 42.6 11.7 29.5 9 99.5 9 132.1s2.7 102.7-9 132.1z"
    />
  </symbol>

  <!-- LinkedIn Icon -->
  <symbol id="LinkedInIcon" xmlns="http://www.w3.org/2000/svg" viewBox="0 0 448 512">
    <path
      d="M416 32H31.9C14.3 32 0 46.5 0 64.3v383.4C0 465.5 14.3 480 31.9 480H416c17.6 0 32-14.5 32-32.3V64.3c0-17.8-14.4-32.3-32-32.3zM135.4 416H69V202.2h66.5V416zm-33.2-243c-21.3 0-38.5-17.3-38.5-38.5S80.9 96 102.2 96c21.2 0 38.5 17.3 38.5 38.5 0 21.3-17.2 38.5-38.5 38.5zm282.1 243h-66.4V312c0-24.8-.5-56.7-34.5-56.7-34.6 0-39.9 27-39.9 54.9V416h-66.4V202.2h63.7v29.2h.9c8.9-16.8 30.6-34.5 62.9-34.5 67.2 0 79.7 44.3 79.7 101.9V416z"
    />
  </symbol>

  <!-- Moon Icon -->
  <symbol id="MoonIcon" xmlns="http://www.w3.org/2000/svg" viewBox="-12 0 448 448.04455">
    <path
      d="m224.023438 448.03125c85.714843.902344 164.011718-48.488281 200.117187-126.230469-22.722656 9.914063-47.332031 14.769531-72.117187 14.230469-97.15625-.109375-175.890626-78.84375-176-176 .972656-65.71875 37.234374-125.832031 94.910156-157.351562-15.554688-1.980469-31.230469-2.867188-46.910156-2.648438-123.714844 0-224.0000005 100.289062-224.0000005 224 0 123.714844 100.2851565 224 224.0000005 224zm0 0"
    />
  </symbol>

  <!-- Spotify Icon -->
  <symbol id="SpotifyIcon" xmlns="http://www.w3.org/2000/svg" viewBox="0 0 496 512">
    <path
      d="M248 8C111.1 8 0 119.1 0 256s111.1 248 248 248 248-111.1 248-248S384.9 8 248 8zm100.7 364.9c-4.2 0-6.8-1.3-10.7-3.6-62.4-37.6-135-39.2-206.7-24.5-3.9 1-9 2.6-11.9 2.6-9.7 0-15.8-7.7-15.8-15.8 0-10.3 6.1-15.2 13.6-16.8 81.9-18.1 165.6-16.5 237 26.2 6.1 3.9 9.7 7.4 9.7 16.5s-7.1 15.4-15.2 15.4zm26.9-65.6c-5.2 0-8.7-2.3-12.3-4.2-62.5-37-155.7-51.9-238.6-29.4-4.8 1.3-7.4 2.6-11.9 2.6-10.7 0-19.4-8.7-19.4-19.4s5.2-17.8 15.5-20.7c27.8-7.8 56.2-13.6 97.8-13.6 64.9 0 127.6 16.1 177 45.5 8.1 4.8 11.3 11 11.3 19.7-.1 10.8-8.5 19.5-19.4 19.5zm31-76.2c-5.2 0-8.4-1.3-12.9-3.9-71.2-42.5-198.5-52.7-280.9-29.7-3.6 1-8.1 2.6-12.9 2.6-13.2 0-23.3-10.3-23.3-23.6 0-13.6 8.4-21.3 17.4-23.9 35.2-10.3 74.6-15.2 117.5-15.2 73 0 149.5 15.2 205.4 47.8 7.8 4.5 12.9 10.7 12.9 22.6 0 13.6-11 23.3-23.2 23.3z"
    />
  </symbol>

  <!-- Sun Icon -->
  <symbol id="SunIcon" xmlns="http://www.w3.org/2000/svg" viewBox="0 0 128 128">
    <g>
      <circle cx="64" cy="63.997" fill="#fedb41" r="39.247" />
      <g fill="#fea832">
        <path d="m95.247 65.747a1.749 1.749 0 0 1 -1.747-1.747 29.53 29.53 0 0 0 -29.5-29.5 1.75 1.75 0 0 1 0-3.5 33.035 33.035 0 0 1 33 33 1.749 1.749 0 0 1 -1.753 1.747z" />
        <g>
          <path d="m64 16.75a47.252 47.252 0 0 1 8.5.781c.038-.545.063-1.1.063-1.658-.001-7.801-8.563-14.126-8.563-14.126s-8.563 6.325-8.563 14.126c0 .562.026 1.113.064 1.658a47.243 47.243 0 0 1 8.499-.781z" />
          <path d="m64 111.244a47.343 47.343 0 0 0 8.5-.78c.038.544.063 1.095.063 1.657 0 7.8-8.562 14.126-8.562 14.126s-8.563-6.324-8.563-14.126c0-.562.026-1.113.064-1.657a47.335 47.335 0 0 0 8.498.78z" />
          <path d="m97.409 30.588a47.349 47.349 0 0 1 5.457 6.562c.413-.358.82-.73 1.217-1.127 5.517-5.517 3.934-16.043 3.934-16.043s-10.526-1.58-16.043 3.934c-.4.4-.769.8-1.127 1.217a47.349 47.349 0 0 1 6.562 5.457z" />
          <path d="m30.591 97.406a47.232 47.232 0 0 0 6.562 5.457c-.358.413-.73.82-1.127 1.217-5.517 5.517-16.043 3.934-16.043 3.934s-1.583-10.526 3.934-16.043c.4-.4.8-.769 1.217-1.127a47.291 47.291 0 0 0 5.457 6.562z" />
          <path d="m111.247 64a47.335 47.335 0 0 1 -.78 8.5c.544.038 1.095.064 1.657.064 7.8 0 14.126-8.563 14.126-8.563s-6.325-8.562-14.126-8.562c-.562 0-1.113.025-1.657.063a47.343 47.343 0 0 1 .78 8.498z" />
          <path d="m16.753 64a47.335 47.335 0 0 0 .78 8.5c-.544.038-1.1.064-1.657.064-7.801-.004-14.126-8.564-14.126-8.564s6.325-8.562 14.126-8.562c.562 0 1.113.025 1.657.063a47.343 47.343 0 0 0 -.78 8.499z" />
          <path d="m97.409 97.406a47.349 47.349 0 0 1 -6.562 5.457c.358.413.73.82 1.127 1.217 5.517 5.517 16.043 3.934 16.043 3.934s1.583-10.526-3.934-16.043c-.4-.4-.8-.769-1.217-1.127a47.291 47.291 0 0 1 -5.457 6.562z" />
          <path d="m30.591 30.588a47.349 47.349 0 0 0 -5.457 6.562c-.413-.358-.82-.73-1.217-1.127-5.517-5.517-3.934-16.043-3.934-16.043s10.526-1.58 16.043 3.934c.4.4.769.8 1.127 1.217a47.291 47.291 0 0 0 -6.562 5.457z" />
        </g>
      </g>
    </g>
  </symbol>

  <!-- YouTube Icon -->
  <symbol id="YouTubeIcon" xmlns="http://www.w3.org/2000/svg" viewBox="0 0 576 512">
    <path
      d="M549.655 124.083c-6.281-23.65-24.787-42.276-48.284-48.597C458.781 64 288 64 288 64S117.22 64 74.629 75.486c-23.497 6.322-42.003 24.947-48.284 48.597-11.412 42.867-11.412 132.305-11.412 132.305s0 89.438 11.412 132.305c6.281 23.65 24.787 41.5 48.284 47.821C117.22 448 288 448 288 448s170.78 0 213.371-11.486c23.497-6.321 42.003-24.171 48.284-47.821 11.412-42.867 11.412-132.305 11.412-132.305s0-89.438-11.412-132.305zm-317.51 213.508V175.185l142.739 81.205-142.739 81.201z"
    />
  </symbol>
</svg>
